<svg width="577" height="581" viewBox="0 0 577 581" fill="none" xmlns="http://www.w3.org/2000/svg">
<g clip-path="url(#clip0_6_771)">
<path d="M407.051 574.601C405.978 575.043 404.768 574.551 404.302 573.487L358.594 470.144L338.657 425.409L338.523 425.497C338.206 425.693 337.799 425.555 337.651 425.216L307.132 355.842C307.026 355.6 307.163 355.353 307.398 355.265L224.544 168.183C224.463 168.031 217.029 151.43 207.351 129.346C189.466 88.5366 166.957 35.9283 161.203 16.8189L161.1 16.4179C160.84 15.5955 161.252 14.6949 162.049 14.3454L159.053 15.6588C158.256 16.0084 157.844 16.909 158.097 17.7487L158.207 18.1323C163.961 37.2418 186.463 89.8675 204.337 130.653C214.016 152.737 221.467 169.345 221.531 169.49L304.395 356.595C304.167 356.667 304.024 356.931 304.129 357.173L334.648 426.547C334.797 426.886 335.203 427.024 335.52 426.828L335.655 426.74L355.591 471.475L401.3 574.818C401.772 575.864 402.982 576.356 404.049 575.932L408.703 574.064" fill="black"/>
<g opacity="0.5">
<path opacity="0.5" d="M337.748 424.814L358.32 470.998L404.029 574.342C404.501 575.388 405.711 575.88 406.778 575.456L413.406 572.737C414.763 572.185 415.391 570.628 414.833 569.288L397.011 526.421L357.81 432.307L351.901 418.364C346.709 420.583 341.344 423.094 337.748 424.814Z" fill="#008218"/>
<path opacity="0.5" d="M339.694 423.831L360.325 470.119L406.002 573.39L412.993 570.513L395.008 527.241L355.808 433.128L349.905 419.167C346.133 420.778 342.158 422.651 339.694 423.831Z" fill="#008218"/>
<path opacity="0.5" d="M343.583 422.025L409.482 571.965L410.328 571.595L345.606 421.153L343.583 422.025Z" fill="#008218"/>
<path opacity="0.5" d="M351.612 417.62L337.377 423.94L338.043 425.441L352.278 419.12L351.612 417.62Z" fill="#008218"/>
<path opacity="0.5" d="M160.826 17.2724L160.937 17.656C166.69 36.7655 189.192 89.3912 207.067 130.176C216.745 152.26 224.196 168.868 224.26 169.013L307.533 357.02L338.363 426.215C341.958 424.495 347.324 421.984 352.529 419.731L330.853 368.529L267.32 213.145L215.742 90.5262L178.674 9.92278C178.216 8.94274 177.052 8.48816 176.061 8.92245L161.776 15.1999C160.978 15.5494 160.573 16.4327 160.826 17.2724Z" fill="#008218"/>
<path opacity="0.5" d="M226 167.53L309.447 355.965L340.315 425.215C342.778 424.034 346.754 422.162 350.52 420.569L328.78 369.222L265.081 213.492L213.408 90.6563L176.358 10.0597C176.358 10.0597 175.778 10.314 162.611 16.0868C171.904 46.9522 226 167.53 226 167.53Z" fill="#008218"/>
<path opacity="0.5" d="M315.234 359.246L216.671 133.887C216.671 133.887 167.176 19.1113 166.89 14.1529C171.964 11.9285 172.042 12.2397 172.042 12.2397L216.906 113.952C216.906 113.952 253.539 201.515 257.479 209.783C264.149 226.085 298.781 308.001 298.781 308.001L319.45 355.425L315.234 359.246Z" fill="#008218"/>
<path opacity="0.5" d="M217.414 113.729C217.788 114.617 254.088 201.389 257.986 209.56C264.599 225.701 298.956 306.988 299.299 307.803L320.126 355.589L315.051 360.176L216.17 134.092C214.151 129.418 166.63 19.1782 166.339 14.1783L166.329 13.7938L166.668 13.6455C171.669 11.4529 172.027 11.6128 172.263 11.7251L172.482 11.8307L172.543 12.0346L217.414 113.729ZM255.376 206.398C247.286 187.938 216.755 114.954 216.413 114.139L171.718 12.8139C171.269 12.9389 170.139 13.3189 167.488 14.4667C169.061 21.3093 200.432 94.8617 217.161 133.658L315.41 358.333L318.777 355.302L298.256 308.217C297.914 307.402 263.539 226.108 256.961 209.981C256.64 209.315 256.1 208.083 255.376 206.398Z" fill="#008218"/>
<path opacity="0.5" d="M353.344 418.207C353.577 418.738 353.326 419.381 352.795 419.614L352.263 419.847C352.142 419.9 341.234 424.553 338.718 426.074L338.249 426.351C337.932 426.548 337.526 426.409 337.378 426.071L306.859 356.696C306.753 356.455 306.91 356.155 307.166 356.115L308.739 355.828C308.781 355.825 312.798 355.331 316.284 353.688C316.646 353.529 316.977 353.398 317.309 353.267C318.676 352.739 319.978 352.226 321.801 350.275L322.714 349.27C322.92 349.05 323.278 349.109 323.412 349.382L353.344 418.207Z" fill="#008218"/>
<path opacity="0.5" d="M338.163 425.136L308.862 356.898C308.862 356.898 313.039 356.406 316.724 354.661C318.464 353.898 320.149 353.635 322.58 350.999L351.811 418.85C351.836 418.839 340.776 423.573 338.163 425.136Z" fill="#008218"/>
<path opacity="0.5" d="M338.163 425.136L308.862 356.898C308.862 356.898 313.039 356.406 316.724 354.661C318.464 353.898 320.149 353.635 322.58 350.999L351.811 418.85C351.836 418.839 340.776 423.573 338.163 425.136Z" fill="#008218"/>
<path opacity="0.5" d="M314.95 355.41L343.518 422.501L345.885 421.463L317.37 354.392L314.95 355.41Z" fill="#008218"/>
</g>
<path d="M340.528 422.875L361.1 469.06L406.808 572.403C407.281 573.449 408.49 573.942 409.557 573.517L416.186 570.798C417.542 570.247 418.17 568.689 417.612 567.35L399.79 524.482L360.589 430.369L354.68 416.426C349.471 418.638 344.106 421.148 340.528 422.875Z" fill="black"/>
<path d="M342.473 421.893L363.105 468.181L408.782 571.452L415.772 568.574L397.788 525.303L358.587 431.189L352.685 417.229C348.912 418.839 344.937 420.712 342.473 421.893Z" fill="#46B20F"/>
<g opacity="0.5">
<g opacity="0.5">
<path opacity="0.5" d="M346.362 420.087L412.262 570.027L413.107 569.656L348.368 419.208L346.362 420.087Z" fill="white"/>
</g>
</g>
<path d="M354.374 415.684L340.138 422.004L340.804 423.505L355.04 417.184L354.374 415.684Z" fill="black"/>
<path d="M163.588 15.327L163.699 15.7106C169.452 34.82 191.954 87.4457 209.829 128.231C219.507 150.315 226.958 166.923 227.022 167.068L310.278 355.068L341.107 424.263C344.702 422.543 350.068 420.032 355.273 417.779L333.597 366.577L270.064 211.192L218.521 88.5875L181.454 7.98412C180.995 7.00408 179.831 6.5495 178.841 6.98379L164.555 13.2612C163.758 13.6108 163.335 14.4873 163.588 15.327Z" fill="black"/>
<path d="M228.78 165.592L312.227 354.026L343.094 423.277C345.558 422.096 349.533 420.224 353.299 418.63L331.559 367.283L267.861 211.554L216.17 88.711L179.12 8.11443C179.12 8.11443 178.54 8.36865 165.373 14.1415C174.683 45.0137 228.78 165.592 228.78 165.592Z" fill="#46B20F"/>
<g opacity="0.5">
<path opacity="0.5" d="M318.014 357.308L219.433 131.942C219.433 131.942 169.939 17.1661 169.676 12.1971C174.75 9.97273 174.829 10.2839 174.829 10.2839L219.675 111.989C219.675 111.989 256.308 199.552 260.248 207.82C266.917 224.123 301.55 306.038 301.55 306.038L322.219 353.462L318.014 357.308Z" fill="white"/>
</g>
<path d="M220.176 111.784C220.55 112.671 256.851 199.444 260.748 207.615C267.361 223.755 301.719 305.043 302.061 305.858L322.889 353.644L317.813 358.231L218.95 132.153C216.913 127.473 169.392 17.233 169.119 12.2399L169.109 11.8555L169.447 11.7072C174.448 9.51457 174.806 9.67443 175.043 9.78679L175.262 9.89237L175.322 10.0963L220.176 111.784ZM258.132 204.47C250.042 186.011 219.51 113.026 219.168 112.212L174.498 10.8756C174.048 11.0006 172.919 11.3806 170.268 12.5283C171.841 19.371 203.212 92.9233 219.94 131.719L318.19 356.395L321.556 353.364L301.036 306.278C300.693 305.464 266.319 224.169 259.74 208.042C259.42 207.377 258.88 206.144 258.132 204.47ZM174.321 10.5064C174.339 10.5132 174.339 10.5132 174.321 10.5064V10.5064Z" fill="black"/>
<path d="M356.124 416.268C356.357 416.8 356.105 417.443 355.574 417.676L355.042 417.909C354.922 417.962 344.014 422.614 341.498 424.135L341.029 424.413C340.712 424.609 340.305 424.471 340.157 424.132L309.638 354.758C309.532 354.516 309.689 354.217 309.945 354.177L311.519 353.89C311.56 353.886 315.578 353.392 319.063 351.749C319.425 351.59 319.757 351.459 320.088 351.329C321.456 350.801 322.757 350.288 324.581 348.336L325.494 347.331C325.7 347.111 326.057 347.171 326.191 347.443L356.124 416.268Z" fill="black"/>
<path d="M340.943 423.198L311.642 354.96C311.642 354.96 315.819 354.468 319.504 352.723C321.243 351.96 322.928 351.697 325.359 349.061L354.591 416.912C354.615 416.901 343.555 421.634 340.943 423.198Z" fill="#46B20F"/>
<path d="M340.943 423.198L311.642 354.96C311.642 354.96 315.819 354.468 319.504 352.723C321.243 351.96 322.928 351.697 325.359 349.061L354.591 416.912C354.615 416.901 343.555 421.634 340.943 423.198Z" fill="#46B20F"/>
<g opacity="0.5">
<path opacity="0.5" d="M317.73 353.472L346.297 420.562L348.665 419.524L320.132 352.447L317.73 353.472Z" fill="white"/>
</g>
</g>
<defs>
<clipPath id="clip0_6_771">
<rect width="442.754" height="449.194" fill="white" transform="translate(164.352 0.705078) rotate(21.3304)"/>
</clipPath>
</defs>
</svg>
